<svg width="36" height="36" viewBox="0 0 36 36" fill="none" xmlns="http://www.w3.org/2000/svg">
<path d="M34.8617 26.4031V31.511C34.8637 31.9851 34.7665 32.4545 34.5766 32.889C34.3866 33.3234 34.108 33.7134 33.7586 34.034C33.4092 34.3546 32.9966 34.5986 32.5475 34.7505C32.0983 34.9024 31.6223 34.9589 31.15 34.9162C25.9108 34.3469 20.8782 32.5566 16.4565 29.6892C12.3427 27.0751 8.85492 23.5873 6.24084 19.4735C3.36339 15.0317 1.57269 9.97462 1.01382 4.71186C0.971272 4.24103 1.02723 3.7665 1.17812 3.31848C1.32902 2.87046 1.57155 2.45877 1.89027 2.10962C2.20899 1.76047 2.59692 1.48151 3.02936 1.2905C3.46179 1.09949 3.92927 1.00061 4.40202 1.00017H9.50985C10.3361 0.992033 11.1372 1.28463 11.7637 1.82343C12.3902 2.36223 12.7994 3.11046 12.9151 3.92866C13.1307 5.56328 13.5305 7.16826 14.1069 8.71299C14.336 9.3224 14.3856 9.9847 14.2498 10.6214C14.114 11.2581 13.7985 11.8426 13.3407 12.3055L11.1784 14.4678C13.6022 18.7304 17.1315 22.2597 21.3941 24.6835L23.5564 22.5212C24.0193 22.0634 24.6038 21.7479 25.2405 21.6121C25.8772 21.4763 26.5395 21.5259 27.1489 21.755C28.6936 22.3314 30.2986 22.7312 31.9332 22.9468C32.7603 23.0635 33.5156 23.4801 34.0556 24.1174C34.5955 24.7546 34.8824 25.5681 34.8617 26.4031Z" stroke="#FFFFFF" stroke-width="2" stroke-linecap="round" stroke-linejoin="round"/>
</svg>
