<svg width="34" height="25" viewBox="0 0 34 25" fill="none" xmlns="http://www.w3.org/2000/svg">
<path d="M31.5714 0H2.42857C1.78447 0 1.16676 0.255866 0.711312 0.711312C0.255866 1.16676 0 1.78447 0 2.42857V21.8571C0 22.5012 0.255866 23.119 0.711312 23.5744C1.16676 24.0298 1.78447 24.2857 2.42857 24.2857H31.5714C32.2155 24.2857 32.8332 24.0298 33.2887 23.5744C33.7441 23.119 34 22.5012 34 21.8571V2.42857C34 1.78447 33.7441 1.16676 33.2887 0.711312C32.8332 0.255866 32.2155 0 31.5714 0ZM28.9 2.42857L17 10.6614L5.1 2.42857H28.9ZM2.42857 21.8571V3.53357L16.3079 13.1386C16.5111 13.2796 16.7526 13.3551 17 13.3551C17.2474 13.3551 17.4889 13.2796 17.6921 13.1386L31.5714 3.53357V21.8571H2.42857Z" fill="#FFFFFF"/>
</svg>
